<?xml version="1.0" encoding="UTF-8"?>
<svg version="1.1" xmlns="http://www.w3.org/2000/svg" width="128" height="128">
<path d="M0 0 C1.32 0.66 2.64 1.32 4 2 C4.99 1.34 5.98 0.68 7 0 C7.47985967 1.27057182 7.9588593 2.54146848 8.4375 3.8125 C8.70433594 4.52019531 8.97117188 5.22789063 9.24609375 5.95703125 C9.86225186 7.62672396 10.43719235 9.31157704 11 11 C13.00016466 12.20882096 13.00016466 12.20882096 15 13 C15 13.99 15 14.98 15 16 C14.01 16 13.02 16 12 16 C11.505 17.485 11.505 17.485 11 19 C10.34 19 9.68 19 9 19 C9.0407666 19.58491211 9.0815332 20.16982422 9.12353516 20.77246094 C9.30228316 23.43100796 9.46380807 26.09033321 9.625 28.75 C9.68945312 29.67039062 9.75390625 30.59078125 9.8203125 31.5390625 C9.871875 32.42851563 9.9234375 33.31796875 9.9765625 34.234375 C10.02893066 35.05131836 10.08129883 35.86826172 10.13525391 36.70996094 C9.98414765 39.26840268 9.28926961 40.80868168 8 43 C7.34 43 6.68 43 6 43 C7.051875 44.485 7.051875 44.485 8.125 46 C9.97288095 49.15948876 10.170977 50.89867741 9.25 54.4375 C8.8375 55.613125 8.425 56.78875 8 58 C6.68 57.67 5.36 57.34 4 57 C4.04125 56.05125 4.0825 55.1025 4.125 54.125 C4.34973818 50.89755144 4.34973818 50.89755144 2 49 C2 53.29 2 57.58 2 62 C0.35 61.67 -1.3 61.34 -3 61 C-3.99 56.71 -4.98 52.42 -6 48 C-7.77375 48.020625 -9.5475 48.04125 -11.375 48.0625 C-16.75 48.125 -16.75 48.125 -19 47 C-18.71125 47.67546875 -18.4225 48.3509375 -18.125 49.046875 C-17.75375 49.93890625 -17.3825 50.8309375 -17 51.75 C-16.62875 52.63171875 -16.2575 53.5134375 -15.875 54.421875 C-15 57 -15 57 -15 61 C-17.25 61 -17.25 61 -20 60 C-21.67198768 57.47332213 -22.85805571 54.80063432 -24 52 C-24.99 52.495 -24.99 52.495 -26 53 C-25.979375 54.11375 -25.95875 55.2275 -25.9375 56.375 C-26 60 -26 60 -27 62 C-28.32 61.67 -29.64 61.34 -31 61 C-32.71289851 55.76054572 -33.45438476 52.90876951 -31 48 C-30.93003986 46.29297265 -30.91559846 44.58331997 -30.9375 42.875 C-30.94652344 41.96492188 -30.95554688 41.05484375 -30.96484375 40.1171875 C-30.97644531 39.41851562 -30.98804688 38.71984375 -31 38 C-31.99 38 -32.98 38 -34 38 C-32.94124926 34.59687262 -31.99097846 31.98646769 -30 29 C-27.47802734 28.56762695 -27.47802734 28.56762695 -24.3359375 28.48828125 C-23.21445312 28.45283203 -22.09296875 28.41738281 -20.9375 28.38085938 C-19.761875 28.35830078 -18.58625 28.33574219 -17.375 28.3125 C-16.19164063 28.27833984 -15.00828125 28.24417969 -13.7890625 28.20898438 C-10.8594694 28.12629425 -7.9301836 28.05721286 -5 28 C-4.67 25.36 -4.34 22.72 -4 20 C-4.66 20 -5.32 20 -6 20 C-6.64303167 17.13108946 -7.13653386 14.89871883 -7 12 C-4.6875 8.875 -4.6875 8.875 -2 6 C-0.67649342 2.78734084 -0.67649342 2.78734084 0 0 Z " fill="#EBE5E2" transform="translate(74,28)"/>
<path d="M0 0 C1.32 0.66 2.64 1.32 4 2 C4.99 1.34 5.98 0.68 7 0 C7.47985967 1.27057182 7.9588593 2.54146848 8.4375 3.8125 C8.70433594 4.52019531 8.97117188 5.22789063 9.24609375 5.95703125 C9.86225186 7.62672396 10.43719235 9.31157704 11 11 C13.00016466 12.20882096 13.00016466 12.20882096 15 13 C15 13.99 15 14.98 15 16 C14.01 16 13.02 16 12 16 C11.505 17.485 11.505 17.485 11 19 C10.34 19 9.68 19 9 19 C9.0407666 19.58491211 9.0815332 20.16982422 9.12353516 20.77246094 C9.30228316 23.43100796 9.46380807 26.09033321 9.625 28.75 C9.68945312 29.67039062 9.75390625 30.59078125 9.8203125 31.5390625 C9.871875 32.42851563 9.9234375 33.31796875 9.9765625 34.234375 C10.02893066 35.05131836 10.08129883 35.86826172 10.13525391 36.70996094 C9.98414765 39.26840268 9.28926961 40.80868168 8 43 C7.34 43 6.68 43 6 43 C7.051875 44.485 7.051875 44.485 8.125 46 C9.97288095 49.15948876 10.170977 50.89867741 9.25 54.4375 C8.8375 55.613125 8.425 56.78875 8 58 C6.68 57.67 5.36 57.34 4 57 C4.04125 56.05125 4.0825 55.1025 4.125 54.125 C4.34973818 50.89755144 4.34973818 50.89755144 2 49 C2 53.29 2 57.58 2 62 C0.35 61.67 -1.3 61.34 -3 61 C-4.35439668 58.29120665 -4.06501451 55.99066732 -4 53 C-3.67 53 -3.34 53 -3 53 C-3 54.65 -3 56.3 -3 58 C-2.01 57.505 -2.01 57.505 -1 57 C-0.60645698 54.54708639 -0.60645698 54.54708639 -0.5 51.6875 C-0.29620539 47.87144589 0.16277811 45.34104829 2 42 C3.07292424 37.89167334 3.07292424 37.89167334 2 34 C3.32 34 4.64 34 6 34 C5.34 32.35 4.68 30.7 4 29 C4.66 29 5.32 29 6 29 C5.67 26.69 5.34 24.38 5 22 C1.94736336 21.01879536 0.05263664 21.01879536 -3 22 C-3 24.31 -3 26.62 -3 29 C-7.4378561 30.11165232 -11.76956386 30.11527763 -16.3125 30.0625 C-17.05306641 30.05798828 -17.79363281 30.05347656 -18.55664062 30.04882812 C-20.37112899 30.03712175 -22.18557534 30.01918898 -24 30 C-24 29.67 -24 29.34 -24 29 C-17.62694402 28.25492456 -11.41688675 27.89650183 -5 28 C-4.67 25.36 -4.34 22.72 -4 20 C-4.66 20 -5.32 20 -6 20 C-6.64303167 17.13108946 -7.13653386 14.89871883 -7 12 C-4.6875 8.875 -4.6875 8.875 -2 6 C-0.67649342 2.78734084 -0.67649342 2.78734084 0 0 Z " fill="#D1CBC8" transform="translate(74,28)"/>
<path d="M0 0 C2.97 0.495 2.97 0.495 6 1 C5.01 1.33 4.02 1.66 3 2 C2.34 1.67 1.68 1.34 1 1 C1.350625 1.7425 1.70125 2.485 2.0625 3.25 C3.04509293 6.1322726 3.0326802 7.21176345 2 10 C2.66 10.33 3.32 10.66 4 11 C3.01 11.33 2.02 11.66 1 12 C2.74934898 14.08333079 2.74934898 14.08333079 5 16 C6.32 16 7.64 16 9 16 C9.33 15.01 9.66 14.02 10 13 C10.7734375 13.495 10.7734375 13.495 11.5625 14 C14.09109554 15.22547259 14.09109554 15.22547259 17.4375 14.9375 C21.37231928 15.00653192 23.09071316 15.35519378 26 18 C26.3125 21.1875 26.3125 21.1875 26 24 C25.67 24 25.34 24 25 24 C24.505 21.525 24.505 21.525 24 19 C22.84371094 19.01740234 22.84371094 19.01740234 21.6640625 19.03515625 C20.15972656 19.04869141 20.15972656 19.04869141 18.625 19.0625 C17.62726562 19.07410156 16.62953125 19.08570312 15.6015625 19.09765625 C13 19 13 19 11 18 C11.28875 18.67546875 11.5775 19.3509375 11.875 20.046875 C12.24625 20.93890625 12.6175 21.8309375 13 22.75 C13.37125 23.63171875 13.7425 24.5134375 14.125 25.421875 C15 28 15 28 15 32 C12.75 32 12.75 32 10 31 C8.32801232 28.47332213 7.14194429 25.80063432 6 23 C5.34 23.33 4.68 23.66 4 24 C4.020625 25.11375 4.04125 26.2275 4.0625 27.375 C4 31 4 31 3 33 C1.68 32.67 0.36 32.34 -1 32 C-2.71289851 26.76054572 -3.45438476 23.90876951 -1 19 C-0.93003986 17.29297265 -0.91559846 15.58331997 -0.9375 13.875 C-0.94652344 12.96492188 -0.95554688 12.05484375 -0.96484375 11.1171875 C-0.97644531 10.41851562 -0.98804688 9.71984375 -1 9 C-1.99 9 -2.98 9 -4 9 C-2.94124926 5.59687262 -1.99097846 2.98646769 0 0 Z " fill="#7F7B7B" transform="translate(44,57)"/>
<path d="M0 0 C0.99 0.33 1.98 0.66 3 1 C2.34 1 1.68 1 1 1 C1.0407666 1.58491211 1.0815332 2.16982422 1.12353516 2.77246094 C1.30228316 5.43100796 1.46380807 8.09033321 1.625 10.75 C1.68945312 11.67039062 1.75390625 12.59078125 1.8203125 13.5390625 C1.871875 14.42851563 1.9234375 15.31796875 1.9765625 16.234375 C2.02893066 17.05131836 2.08129883 17.86826172 2.13525391 18.70996094 C1.98414765 21.26840268 1.28926961 22.80868168 0 25 C-0.66 25 -1.32 25 -2 25 C-1.29875 25.99 -0.5975 26.98 0.125 28 C1.97288095 31.15948876 2.170977 32.89867741 1.25 36.4375 C0.8375 37.613125 0.425 38.78875 0 40 C-1.32 39.67 -2.64 39.34 -4 39 C-3.95875 38.05125 -3.9175 37.1025 -3.875 36.125 C-3.65026182 32.89755144 -3.65026182 32.89755144 -6 31 C-6 35.29 -6 39.58 -6 44 C-7.65 43.67 -9.3 43.34 -11 43 C-12.35439668 40.29120665 -12.06501451 37.99066732 -12 35 C-11.67 35 -11.34 35 -11 35 C-11 36.65 -11 38.3 -11 40 C-10.01 39.505 -10.01 39.505 -9 39 C-8.60645698 36.54708639 -8.60645698 36.54708639 -8.5 33.6875 C-8.29670564 29.88081313 -7.86779191 27.32129914 -6 24 C-5.31039038 22.00779443 -4.63920943 20.00894394 -4 18 C-3.34 18.33 -2.68 18.66 -2 19 C-0.3501993 15.70039859 -0.61741639 12.00872116 -0.4375 8.375 C-0.39431641 7.57320312 -0.35113281 6.77140625 -0.30664062 5.9453125 C-0.20048543 3.9637489 -0.09973145 1.98189729 0 0 Z " fill="#635F5F" transform="translate(82,46)"/>
<path d="M0 0 C0.99 0.66 1.98 1.32 3 2 C2.34 2.66 1.68 3.32 1 4 C1.33 4.99 1.66 5.98 2 7 C3.98 7 5.96 7 8 7 C8 7.33 8 7.66 8 8 C10.475 8.495 10.475 8.495 13 9 C13.05392397 11.77109307 13.09363455 14.54113818 13.125 17.3125 C13.14175781 18.09818359 13.15851563 18.88386719 13.17578125 19.69335938 C13.18544922 20.8293457 13.18544922 20.8293457 13.1953125 21.98828125 C13.21102295 23.03302612 13.21102295 23.03302612 13.22705078 24.09887695 C13 26 13 26 11 29 C9.68 27.68 8.36 26.36 7 25 C8.32 25 9.64 25 11 25 C10.34 23.35 9.68 21.7 9 20 C9.66 20 10.32 20 11 20 C10.67 17.69 10.34 15.38 10 13 C6.94736336 12.01879536 5.05263664 12.01879536 2 13 C2 15.31 2 17.62 2 20 C-2.4378561 21.11165232 -6.76956386 21.11527763 -11.3125 21.0625 C-12.05306641 21.05798828 -12.79363281 21.05347656 -13.55664062 21.04882812 C-15.37112899 21.03712175 -17.18557534 21.01918898 -19 21 C-19 20.67 -19 20.34 -19 20 C-12.62694402 19.25492456 -6.41688675 18.89650183 0 19 C0.33 16.36 0.66 13.72 1 11 C0.34 11 -0.32 11 -1 11 C-2.25 3.375 -2.25 3.375 0 0 Z " fill="#948F8E" transform="translate(69,37)"/>
<path d="M0 0 C0.680625 0.33 1.36125 0.66 2.0625 1 C5.03520827 2.19725097 5.03520827 2.19725097 8.5 1.9375 C12.39972712 2.00713798 14.11502211 2.37729283 17 5 C17.3125 8.1875 17.3125 8.1875 17 11 C16.67 11 16.34 11 16 11 C15.67 9.35 15.34 7.7 15 6 C13.84371094 6.01740234 13.84371094 6.01740234 12.6640625 6.03515625 C11.15972656 6.04869141 11.15972656 6.04869141 9.625 6.0625 C8.62726562 6.07410156 7.62953125 6.08570312 6.6015625 6.09765625 C4 6 4 6 2 5 C2.28875 5.67546875 2.5775 6.3509375 2.875 7.046875 C3.431875 8.38492188 3.431875 8.38492188 4 9.75 C4.37125 10.63171875 4.7425 11.5134375 5.125 12.421875 C6 15 6 15 6 19 C3.75 19 3.75 19 1 18 C-0.67198768 15.47332213 -1.85805571 12.80063432 -3 10 C-3.66 10 -4.32 10 -5 10 C-5.6875 8.1875 -5.6875 8.1875 -6 6 C-4.75 4.25 -4.75 4.25 -3 3 C-2.01 3 -1.02 3 0 3 C0 2.01 0 1.02 0 0 Z " fill="#5D5959" transform="translate(53,70)"/>
<path d="M0 0 C0.66 0.66 1.32 1.32 2 2 C2.99 2 3.98 2 5 2 C5.33 1.34 5.66 0.68 6 0 C6.66 0 7.32 0 8 0 C8.125 2.375 8.125 2.375 8 5 C7.34 5.66 6.68 6.32 6 7 C5.53709779 9.66242821 5.53709779 9.66242821 5.375 12.625 C5.30023438 13.62789062 5.22546875 14.63078125 5.1484375 15.6640625 C5.09945312 16.43492188 5.05046875 17.20578125 5 18 C4.01 18.33 3.02 18.66 2 19 C1.85304688 17.84371094 1.85304688 17.84371094 1.703125 16.6640625 C1.55359375 15.66117188 1.4040625 14.65828125 1.25 13.625 C1.11078125 12.62726563 0.9715625 11.62953125 0.828125 10.6015625 C0.25613111 7.85438953 0.25613111 7.85438953 -2.078125 6.6484375 C-2.71234375 6.43445313 -3.3465625 6.22046875 -4 6 C-2.68 4.02 -1.36 2.04 0 0 Z " fill="#827C7C" transform="translate(69,67)"/>
<path d="M0 0 C0.99 0.66 1.98 1.32 3 2 C2.34 2.66 1.68 3.32 1 4 C1.33 4.99 1.66 5.98 2 7 C2.66 7.33 3.32 7.66 4 8 C4 8.99 4 9.98 4 11 C3.01 11.495 3.01 11.495 2 12 C2 14.64 2 17.28 2 20 C-2.4378561 21.11165232 -6.76956386 21.11527763 -11.3125 21.0625 C-12.05306641 21.05798828 -12.79363281 21.05347656 -13.55664062 21.04882812 C-15.37112899 21.03712175 -17.18557534 21.01918898 -19 21 C-19 20.67 -19 20.34 -19 20 C-12.62694402 19.25492456 -6.41688675 18.89650183 0 19 C0.33 16.36 0.66 13.72 1 11 C0.34 11 -0.32 11 -1 11 C-2.25 3.375 -2.25 3.375 0 0 Z " fill="#4E4A4A" transform="translate(69,37)"/>
<path d="M0 0 C1 4 1 4 2 8 C-0.91482778 8.80967438 -2.46113217 9.21845993 -5.3125 8.0625 C-5.869375 7.711875 -6.42625 7.36125 -7 7 C-7.33 7.66 -7.66 8.32 -8 9 C-9.32 8.67 -10.64 8.34 -12 8 C-10.12050295 4.42895561 -8.82946843 2.45255699 -5 1 C-4.34 1.66 -3.68 2.32 -3 3 C-2.01 2.01 -1.02 1.02 0 0 Z " fill="#DBD2CA" transform="translate(61,64)"/>
<path d="M0 0 C0.99 0.33 1.98 0.66 3 1 C2.34 1 1.68 1 1 1 C1.0407666 1.58491211 1.0815332 2.16982422 1.12353516 2.77246094 C1.30228316 5.43100796 1.46380807 8.09033321 1.625 10.75 C1.68945312 11.67039062 1.75390625 12.59078125 1.8203125 13.5390625 C1.871875 14.42851563 1.9234375 15.31796875 1.9765625 16.234375 C2.02893066 17.05131836 2.08129883 17.86826172 2.13525391 18.70996094 C1.98003389 21.33805439 1.46602828 22.8192007 0 25 C-3.125 26.25 -3.125 26.25 -6 27 C-5.25 20.25 -5.25 20.25 -3 18 C-2.67 18.33 -2.34 18.66 -2 19 C-0.3501993 15.70039859 -0.61741639 12.00872116 -0.4375 8.375 C-0.37272461 7.17230469 -0.37272461 7.17230469 -0.30664062 5.9453125 C-0.20048543 3.9637489 -0.09973145 1.98189729 0 0 Z " fill="#615C5C" transform="translate(82,46)"/>
<path d="M0 0 C1.32 0.66 2.64 1.32 4 2 C4.99 1.34 5.98 0.68 7 0 C8 1 8 1 8.0625 4.0625 C8.041875 5.031875 8.02125 6.00125 8 7 C5.69 7.33 3.38 7.66 1 8 C1.33 6.02 1.66 4.04 2 2 C1.34 2 0.68 2 0 2 C0 3.98 0 5.96 0 8 C-1.32 8.33 -2.64 8.66 -4 9 C-3.34 8.01 -2.68 7.02 -2 6 C-1.29835358 4.01200182 -0.62627128 2.01301483 0 0 Z " fill="#575353" transform="translate(74,28)"/>
<path d="M0 0 C2.97 0.495 2.97 0.495 6 1 C5.01 1.33 4.02 1.66 3 2 C2.34 1.67 1.68 1.34 1 1 C1.350625 1.7425 1.70125 2.485 2.0625 3.25 C3.04509293 6.1322726 3.0326802 7.21176345 2 10 C2.66 10.33 3.32 10.66 4 11 C2.35 11.66 0.7 12.32 -1 13 C-1 11.68 -1 10.36 -1 9 C-1.99 9 -2.98 9 -4 9 C-2.94124926 5.59687262 -1.99097846 2.98646769 0 0 Z " fill="#8C8887" transform="translate(44,57)"/>
<path d="M0 0 C0.99 0.33 1.98 0.66 3 1 C2.01 1.495 2.01 1.495 1 2 C1 6.95 1 11.9 1 17 C-0.65 16.67 -2.3 16.34 -4 16 C-5.35439668 13.29120665 -5.06501451 10.99066732 -5 8 C-4.67 8 -4.34 8 -4 8 C-4 9.65 -4 11.3 -4 13 C-3.34 12.67 -2.68 12.34 -2 12 C-1.56947737 9.44648887 -1.56947737 9.44648887 -1.4375 6.5 C-1.09628611 1.09628611 -1.09628611 1.09628611 0 0 Z " fill="#2A2929" transform="translate(75,73)"/>
<path d="M0 0 C0.66 0.66 1.32 1.32 2 2 C2.99 2 3.98 2 5 2 C5.33 1.34 5.66 0.68 6 0 C6.66 0 7.32 0 8 0 C8 1.65 8 3.3 8 5 C7.401875 5.144375 6.80375 5.28875 6.1875 5.4375 C4.43849596 5.8872439 2.71322977 6.42892341 1 7 C-1.6875 6.5625 -1.6875 6.5625 -4 6 C-2.68 4.02 -1.36 2.04 0 0 Z " fill="#B7B3B2" transform="translate(69,67)"/>
<path d="M0 0 C1.34386088 0.28797019 2.6757713 0.63215869 4 1 C5.66519519 1.34060811 7.33157466 1.67558396 9 2 C9 2.66 9 3.32 9 4 C7.9275 4.144375 6.855 4.28875 5.75 4.4375 C3.08337051 4.83749442 0.58600271 5.27591924 -2 6 C-1.125 1.125 -1.125 1.125 0 0 Z " fill="#A9A5A4" transform="translate(73,44)"/>
<path d="M0 0 C4.75 1.875 4.75 1.875 7 3 C7.33 2.34 7.66 1.68 8 1 C8.66 1.99 9.32 2.98 10 4 C7.08517222 4.80967438 5.53886783 5.21845993 2.6875 4.0625 C2.130625 3.711875 1.57375 3.36125 1 3 C0.67 3.66 0.34 4.32 0 5 C-1.32 4.67 -2.64 4.34 -4 4 C-2.68 2.68 -1.36 1.36 0 0 Z " fill="#B7B3B2" transform="translate(53,68)"/>
<path d="M0 0 C6.93 0 13.86 0 21 0 C21 0.33 21 0.66 21 1 C19.96359375 1.03738281 18.9271875 1.07476562 17.859375 1.11328125 C16.48954816 1.17895788 15.11975809 1.24540464 13.75 1.3125 C13.06808594 1.33505859 12.38617188 1.35761719 11.68359375 1.38085938 C7.54848704 1.60166604 5.02085566 2.09593 2 5 C1.01 4.01 0.02 3.02 -1 2 C-0.67 1.34 -0.34 0.68 0 0 Z " fill="#D3CBC5" transform="translate(45,58)"/>
<path d="M0 0 C1.32 1.65 2.64 3.3 4 5 C0.125 4.125 0.125 4.125 -1 3 C-1.66 4.32 -2.32 5.64 -3 7 C-5.4375 6.625 -5.4375 6.625 -8 6 C-8.33 5.34 -8.66 4.68 -9 4 C-8.2575 3.896875 -7.515 3.79375 -6.75 3.6875 C-3.82985982 2.95746496 -2.26812446 1.93210602 0 0 Z " fill="#DBD2CA" transform="translate(70,65)"/>
<path d="M0 0 C0.99 0.66 1.98 1.32 3 2 C2.34 2.66 1.68 3.32 1 4 C1.33 4.99 1.66 5.98 2 7 C2.66 7.33 3.32 7.66 4 8 C3.67 8.66 3.34 9.32 3 10 C2.01 10 1.02 10 0 10 C-1.125 6.6875 -1.125 6.6875 -2 3 C-1.34 2.01 -0.68 1.02 0 0 Z " fill="#676262" transform="translate(69,37)"/>
<path d="M0 0 C0.66 0.33 1.32 0.66 2 1 C2 2.98 2 4.96 2 7 C0.35 7 -1.3 7 -3 7 C-2.25 2.25 -2.25 2.25 0 0 Z " fill="#676362" transform="translate(80,28)"/>
<path d="M0 0 C1.98 0.99 3.96 1.98 6 3 C5.67 3.99 5.34 4.98 5 6 C2.4375 7.1875 2.4375 7.1875 0 8 C0 5.36 0 2.72 0 0 Z " fill="#8D8988" transform="translate(44,70)"/>
<path d="M0 0 C0.33 1.32 0.66 2.64 1 4 C2.32 4 3.64 4 5 4 C5.33 3.34 5.66 2.68 6 2 C5.67 3.98 5.34 5.96 5 8 C1.125 7.125 1.125 7.125 0 6 C-0.04080783 4.00041636 -0.04254356 1.99954746 0 0 Z " fill="#322F2F" transform="translate(42,82)"/>
<path d="M0 0 C0.99 0.33 1.98 0.66 3 1 C3 2.98 3 4.96 3 7 C2.01 7.33 1.02 7.66 0 8 C-0.38063221 5.6739143 -0.71269945 3.33944736 -1 1 C-0.67 0.67 -0.34 0.34 0 0 Z " fill="#CAC4C0" transform="translate(71,78)"/>
<path d="M0 0 C0.99 0.33 1.98 0.66 3 1 C3 1.66 3 2.32 3 3 C3.99 3.33 4.98 3.66 6 4 C6 4.33 6 4.66 6 5 C3.03 5 0.06 5 -3 5 C-2.67 4.34 -2.34 3.68 -2 3 C-1.34 3 -0.68 3 0 3 C0 2.01 0 1.02 0 0 Z " fill="#948F8C" transform="translate(82,36)"/>
<path d="M0 0 C2 2 2 2 2 6 C0.35 5.67 -1.3 5.34 -3 5 C-3 4.01 -3 3.02 -3 2 C-2.01 2 -1.02 2 0 2 C0 1.34 0 0.68 0 0 Z " fill="#2C2B2B" transform="translate(57,83)"/>
<path d="M0 0 C0.33 2.31 0.66 4.62 1 7 C-0.32 7 -1.64 7 -3 7 C-3 5.02 -3 3.04 -3 1 C-1 0 -1 0 0 0 Z " fill="#CAC3BE" transform="translate(46,79)"/>
<path d="M0 0 C0.66 0 1.32 0 2 0 C3.125 2.8125 3.125 2.8125 4 6 C3.01 7.485 3.01 7.485 2 9 C0.68 7.68 -0.64 6.36 -2 5 C-0.68 5 0.64 5 2 5 C1.34 3.35 0.68 1.7 0 0 Z " fill="#B8B4B3" transform="translate(78,57)"/>
<path d="M0 0 C0.99 0.66 1.98 1.32 3 2 C2.67 4.64 2.34 7.28 2 10 C1.67 8.68 1.34 7.36 1 6 C0.01 6 -0.98 6 -2 6 C-1.34 4.02 -0.68 2.04 0 0 Z " fill="#4D4A4A" transform="translate(42,60)"/>
<path d="M0 0 C0.66 0.33 1.32 0.66 2 1 C0.71937515 2.7074998 -0.61767557 4.37373596 -2 6 C-2.66 6 -3.32 6 -4 6 C-4 4.68 -4 3.36 -4 2 C-2.125 0.9375 -2.125 0.9375 0 0 Z " fill="#D1C9C3" transform="translate(75,48)"/>
<path d="M0 0 C1.125 3.75 1.125 3.75 0 6 C-1.32 5.67 -2.64 5.34 -4 5 C-3.67 3.68 -3.34 2.36 -3 1 C-3 1.66 -3 2.32 -3 3 C-2.01 3 -1.02 3 0 3 C0 2.01 0 1.02 0 0 Z " fill="#272626" transform="translate(82,80)"/>
</svg>
